<svg width="223" height="185" viewBox="0 0 223 185" fill="none" xmlns="http://www.w3.org/2000/svg">
<path d="M93.506 20.6799C100.247 24.8829 109.816 35.8808 127.006 55.1799C123.702 56.0285 115.555 60.1442 107.006 65.6799C89.006 58.6799 77.506 61.1799 73.006 66.6799C67.2914 60.9076 64.7292 58.2286 61.506 52.6799C74.1533 39.1502 81.006 31.1799 93.506 20.6799Z" fill="#CD9D62"/>
<path d="M128.006 30.6799C132.573 26.1211 135.139 23.5375 139.356 20.83C142.533 23.231 146.051 27.0026 153.006 34.6799L162.706 46.2399C152.352 44.3085 144.694 46.6449 129.506 53.6299L118.066 40.7799L128.006 30.6799Z" fill="#CABC9C"/>
<path d="M136.006 53.6799C149.239 48.7669 155.891 47.5909 163.606 49.5299C159.357 56.5565 156.52 60.3799 150.406 66.9299L128.006 74.1799L110.506 66.6799C120.451 61.2446 126.034 58.3768 136.006 53.6799Z" fill="#028F32"/>
<path d="M75.006 68.6799C84.197 59.8126 98.1681 64.7396 125.006 75.6799C103.423 85.4482 95.1787 88.6362 92.506 87.1799L75.006 68.6799Z" fill="#38AA33"/>
<path d="M147.406 70.0499L111.506 106.68C106.987 101.907 103.115 97.9858 100.253 95.0884C97.9573 92.7641 96.3122 91.0985 95.506 90.1799C107.2 86.5838 114.181 83.9272 129.006 77.1799C129.517 76.9752 130.519 76.3751 131.006 76.1799C139.315 72.8741 143.316 70.858 147.406 70.0499Z" fill="#9AC410"/>
<path d="M112.506 14.18C123.281 3.95027 137.735 -1.25138 150.506 6.67997C168.006 15.6799 169.006 38.4799 165.506 44.9799C153.239 30.5517 143.695 19.4797 140.006 17.7799C137.006 17.1799 134.506 21.1799 116.006 38.18C116.006 38.18 96.5059 16.6799 93.5559 17.9799C88.7816 17.9799 60.006 49.9799 60.006 49.9799C44.835 23.8909 78.8678 -12.8232 112.506 14.18Z" fill="#A7DDF0"/>
<path d="M60.2496 51.9622C60.2496 51.9622 89.7494 19.4623 93.7494 19.4623C97.7495 19.4623 128.279 54.4632 128.279 54.4632" stroke="#325180" stroke-width="3" stroke-linecap="round"/>
<path d="M116.351 40.4304C116.351 40.4304 136.392 19.5446 139.321 19.2533C142.25 18.962 165.25 46.9623 165.25 46.9623" stroke="#325180" stroke-width="3" stroke-linecap="round"/>
<path d="M165.375 48.4463C151.542 44.31 137.75 49.9622 106.75 66.9623" stroke="#325180" stroke-width="3" stroke-linecap="round"/>
<path d="M73.7496 67.9622C81.2495 58.9622 99.0381 62.3313 126.75 74.9622" stroke="#325180" stroke-width="3" stroke-linecap="round"/>
<path d="M150.25 68.4622C143.761 66.1921 100.25 91.4622 93.2496 88.4622" stroke="#325180" stroke-width="3" stroke-linecap="round"/>
<path d="M168.006 35.0234C171.506 54.0235 144.006 74.0235 111.506 108.523" stroke="#325180" stroke-width="4" stroke-linecap="round"/>
<path d="M162.25 16.2063C165.138 21.0692 166.146 23.9347 167.25 29.2063" stroke="#B74043" stroke-width="4" stroke-linecap="round"/>
<line x1="158.078" y1="9.96222" x2="159.25" y2="11.1338" stroke="#B74043" stroke-width="4" stroke-linecap="round"/>
<path d="M111.506 108.523C97.006 93.6799 85.506 81.6799 71.7497 67.4622C60.2496 56.3586 54.6705 45.3796 54.7497 35.9622C54.9433 12.9362 85.7496 -10.5378 112.25 12.9622" stroke="#325180" stroke-width="4" stroke-linecap="round"/>
<path d="M112.25 12.9622C121.75 2.46225 142.544 -1.82156 152.506 6.67993" stroke="#325180" stroke-width="4" stroke-linecap="round"/>
<path d="M47.6846 143.184C47.6846 146.961 46.3597 149.88 43.71 151.938C41.0602 153.979 37.2736 155 32.3501 155H14.7866V116.489H31.1416C41.3646 116.489 46.4761 119.596 46.4761 125.808C46.4761 127.151 46.1538 128.386 45.5093 129.514C44.8647 130.624 43.88 131.6 42.5552 132.441C41.2482 133.283 39.807 133.856 38.2314 134.16V134.268C40.0576 134.482 41.6958 135.028 43.146 135.906C44.5962 136.765 45.7152 137.848 46.5029 139.155C47.2907 140.444 47.6846 141.787 47.6846 143.184ZM34.1494 127.822C34.1494 125.441 32.2785 124.25 28.5366 124.25H26.3882V131.528H29.7451C31.0342 131.528 32.0905 131.188 32.9141 130.508C33.7376 129.81 34.1494 128.914 34.1494 127.822ZM35.3579 143.13C35.3579 142.02 34.9551 141.107 34.1494 140.391C33.3438 139.674 32.2785 139.316 30.9536 139.316H26.3882V147.185H30.2554C31.8309 147.185 33.0752 146.827 33.9883 146.111C34.9014 145.377 35.3579 144.383 35.3579 143.13ZM76.957 155L75.2651 147.91H63.771L61.9448 155H49.4033L62.6699 116.489H77.0645L89.5522 155H76.957ZM69.6523 124.868H69.3838C69.348 125.298 69.2227 126.005 69.0078 126.99C68.793 127.974 67.7098 132.2 65.7583 139.666H73.1167L70.4312 129.192C70.0552 127.652 69.7956 126.211 69.6523 124.868ZM106.82 145.923H124.223V155H91.9155V146.863L109.694 125.566H93.0166V116.489H123.659V124.573L106.82 145.923ZM153.495 155L151.803 147.91H140.309L138.483 155H125.941L139.208 116.489H153.603L166.09 155H153.495ZM146.19 124.868H145.922C145.886 125.298 145.761 126.005 145.546 126.99C145.331 127.974 144.248 132.2 142.296 139.666H149.655L146.969 129.192C146.593 127.652 146.334 126.211 146.19 124.868ZM190.583 155L187.709 146.702C187.154 145.072 186.429 143.792 185.534 142.861C184.656 141.93 183.699 141.465 182.66 141.465H182.204V155H170.602V116.489H186.017C191.406 116.489 195.381 117.375 197.941 119.148C200.519 120.903 201.808 123.543 201.808 127.07C201.808 129.72 201.056 131.94 199.552 133.73C198.066 135.521 195.846 136.819 192.892 137.625V137.732C194.521 138.233 195.873 139.048 196.947 140.176C198.039 141.304 199.015 142.978 199.875 145.198L203.661 155H190.583ZM189.481 128.708C189.481 127.419 189.088 126.399 188.3 125.647C187.512 124.895 186.277 124.519 184.594 124.519H182.204V133.328H184.298C185.856 133.328 187.109 132.889 188.058 132.012C189.007 131.134 189.481 130.033 189.481 128.708Z" fill="#325180"/>
<path d="M33.0381 171.104C33.0381 172.666 32.7087 174.048 32.0498 175.251C31.3981 176.447 30.4635 177.371 29.2461 178.022C28.0286 178.674 26.625 179 25.0352 179H18.5146V163.596H24.8955C30.3239 163.596 33.0381 166.099 33.0381 171.104ZM28.1074 171.147C28.1074 170.396 27.9535 169.719 27.6455 169.117C27.3447 168.516 26.9115 168.05 26.3457 167.721C25.7799 167.391 25.1139 167.227 24.3477 167.227H23.1553V175.369H24.4551C25.5651 175.369 26.4495 174.99 27.1084 174.23C27.7744 173.464 28.1074 172.437 28.1074 171.147ZM35.208 179V163.596H44.8008V167.227H39.8486V169.472H44.5V173.103H39.8486V175.369H45.1553V179H35.208ZM53.4697 179V163.596H58.1104V175.369H63.417V179H53.4697ZM75.0293 179L74.3525 176.164H69.7549L69.0244 179H64.0078L69.3145 163.596H75.0723L80.0674 179H75.0293ZM72.1074 166.947H72C71.9857 167.119 71.9355 167.402 71.8496 167.796C71.7637 168.19 71.3304 169.88 70.5498 172.866H73.4932L72.4189 168.677C72.2686 168.061 72.1647 167.484 72.1074 166.947ZM102.1 179V170.557C102.1 169.762 102.125 168.888 102.175 167.936L102.207 167.227H102.078C101.849 168.437 101.674 169.275 101.552 169.74L99.2852 179H94.9238L92.5498 169.848C92.4854 169.618 92.3171 168.745 92.0449 167.227H91.916C92.0163 169.633 92.0664 171.137 92.0664 171.738V179H87.9951V163.596H94.9453L97.0615 171.964C97.1117 172.136 97.1761 172.487 97.2549 173.017C97.3408 173.539 97.3945 173.944 97.416 174.23H97.4805C97.5592 173.579 97.6846 172.809 97.8564 171.921L99.833 163.596H106.676V179H102.1ZM124.368 171.255C124.368 172.802 124.035 174.188 123.369 175.412C122.703 176.63 121.772 177.578 120.576 178.259C119.38 178.932 118.041 179.269 116.559 179.269C115.112 179.269 113.794 178.943 112.605 178.291C111.424 177.632 110.504 176.712 109.845 175.53C109.186 174.341 108.856 172.999 108.856 171.502C108.856 169.934 109.189 168.523 109.855 167.27C110.521 166.016 111.456 165.049 112.659 164.369C113.862 163.682 115.23 163.338 116.763 163.338C118.238 163.338 119.556 163.667 120.716 164.326C121.883 164.978 122.782 165.912 123.412 167.13C124.049 168.34 124.368 169.715 124.368 171.255ZM119.448 171.384C119.448 170.116 119.205 169.117 118.718 168.387C118.231 167.656 117.565 167.291 116.72 167.291C115.796 167.291 115.076 167.642 114.561 168.344C114.045 169.046 113.787 170.037 113.787 171.319C113.787 172.573 114.041 173.55 114.55 174.252C115.065 174.954 115.764 175.305 116.645 175.305C117.182 175.305 117.665 175.147 118.095 174.832C118.524 174.517 118.857 174.066 119.094 173.479C119.33 172.891 119.448 172.193 119.448 171.384ZM137.323 179L131.888 171.566C131.458 170.979 131.107 170.449 130.835 169.977H130.792C130.835 170.736 130.856 171.588 130.856 172.533V179H126.56V163.596H130.942L136.152 170.664C136.217 170.757 136.296 170.868 136.389 170.997C136.482 171.126 136.575 171.258 136.668 171.395C136.761 171.531 136.847 171.663 136.926 171.792C137.012 171.921 137.076 172.035 137.119 172.136H137.162C137.119 171.821 137.098 171.276 137.098 170.503V163.596H141.395V179H137.323ZM152.223 167.227V179H147.561V167.227H143.253V163.596H156.584V167.227H152.223ZM168.1 179L167.423 176.164H162.825L162.095 179H157.078L162.385 163.596H168.143L173.138 179H168.1ZM165.178 166.947H165.07C165.056 167.119 165.006 167.402 164.92 167.796C164.834 168.19 164.401 169.88 163.62 172.866H166.563L165.489 168.677C165.339 168.061 165.235 167.484 165.178 166.947ZM185.706 179L180.271 171.566C179.841 170.979 179.49 170.449 179.218 169.977H179.175C179.218 170.736 179.239 171.588 179.239 172.533V179H174.942V163.596H179.325L184.535 170.664C184.6 170.757 184.678 170.868 184.771 170.997C184.865 171.126 184.958 171.258 185.051 171.395C185.144 171.531 185.23 171.663 185.309 171.792C185.395 171.921 185.459 172.035 185.502 172.136H185.545C185.502 171.821 185.48 171.276 185.48 170.503V163.596H189.777V179H185.706ZM186.565 158.364C186.565 159.546 186.351 160.452 185.921 161.082C185.491 161.705 184.872 162.017 184.062 162.017C183.432 162.017 182.824 161.841 182.236 161.49C181.993 161.347 181.767 161.211 181.56 161.082C181.359 160.953 181.144 160.889 180.915 160.889C180.643 160.889 180.428 161 180.271 161.222C180.113 161.444 180.034 161.759 180.034 162.167H178.165C178.165 160.95 178.383 160.036 178.82 159.428C179.264 158.819 179.866 158.515 180.625 158.515C181.355 158.515 182.032 158.722 182.655 159.138C182.863 159.267 183.06 159.385 183.246 159.492C183.432 159.592 183.636 159.643 183.858 159.643C184.102 159.643 184.299 159.539 184.449 159.331C184.6 159.116 184.675 158.794 184.675 158.364H186.565ZM202.475 179L201.798 176.164H197.2L196.47 179H191.453L196.76 163.596H202.518L207.513 179H202.475ZM199.553 166.947H199.445C199.431 167.119 199.381 167.402 199.295 167.796C199.209 168.19 198.776 169.88 197.995 172.866H200.938L199.864 168.677C199.714 168.061 199.61 167.484 199.553 166.947Z" fill="#2C456B"/>
<path d="M0.969482 170.75H14.5" stroke="#325180" stroke-width="5"/>
<path d="M209 171H222.531" stroke="#325180" stroke-width="5"/>
</svg>
